<svg width="300" height="300" viewBox="0 0 300 300" fill="none" xmlns="http://www.w3.org/2000/svg">
<g clip-path="url(#clip0_94_193)">
<path d="M68.8201 167.14H53.8201V152.14C53.8201 149.753 54.7683 147.464 56.4561 145.776C58.1439 144.088 60.4331 143.14 62.8201 143.14H137.82C139.411 143.14 140.937 143.772 142.063 144.897C143.188 146.023 143.82 147.549 143.82 149.14V161.14C143.82 162.731 143.188 164.257 142.063 165.383C140.937 166.508 139.411 167.14 137.82 167.14" fill="#FFC457"/>
<path d="M137.64 170.14V164.14C138.436 164.14 139.199 163.824 139.761 163.261C140.324 162.699 140.64 161.936 140.64 161.14V149.14C140.64 148.344 140.324 147.581 139.761 147.019C139.199 146.456 138.436 146.14 137.64 146.14H62.6399C61.0486 146.14 59.5225 146.772 58.3973 147.897C57.272 149.023 56.6399 150.549 56.6399 152.14V164.14H68.6399V170.14H53.6399C52.8442 170.14 52.0812 169.824 51.5186 169.261C50.956 168.699 50.6399 167.936 50.6399 167.14V152.14C50.6399 148.957 51.9042 145.905 54.1546 143.655C56.405 141.404 59.4573 140.14 62.6399 140.14H137.64C140.027 140.14 142.316 141.088 144.004 142.776C145.692 144.464 146.64 146.753 146.64 149.14V161.14C146.64 163.527 145.692 165.816 144.004 167.504C142.316 169.192 140.027 170.14 137.64 170.14Z" fill="#495771"/>
<path d="M106.14 89.59V119.59L92.6399 107.08L79.1399 119.59V89.59H106.14Z" fill="#FFA500"/>
<path d="M230.64 134.11C220.92 134.11 209.64 126.25 209.64 116.11C209.64 105.97 220.92 98.11 230.64 98.11C231.436 98.11 232.199 98.4261 232.761 98.9887C233.324 99.5513 233.64 100.314 233.64 101.11V131.11C233.64 131.906 233.324 132.669 232.761 133.231C232.199 133.794 231.436 134.11 230.64 134.11ZM227.64 104.44C221.64 105.73 215.64 110.44 215.64 116.11C215.64 121.78 221.64 126.49 227.64 127.78V104.44Z" fill="#495771"/>
<path d="M131.64 145.36H125.64V89.86H59.6399V145.36H53.6399V86.86C53.6399 86.0644 53.956 85.3013 54.5186 84.7387C55.0812 84.1761 55.8442 83.86 56.6399 83.86H128.64C129.436 83.86 130.199 84.1761 130.761 84.7387C131.324 85.3013 131.64 86.0644 131.64 86.86V145.36Z" fill="#495771"/>
<path d="M137.64 170.14V164.14C138.436 164.14 139.199 163.824 139.761 163.261C140.324 162.699 140.64 161.936 140.64 161.14V149.14C140.64 148.344 140.324 147.581 139.761 147.019C139.199 146.456 138.436 146.14 137.64 146.14H62.6399C61.0486 146.14 59.5225 146.772 58.3973 147.897C57.272 149.023 56.6399 150.549 56.6399 152.14V164.14H68.6399V170.14H53.6399C52.8442 170.14 52.0812 169.824 51.5186 169.261C50.956 168.699 50.6399 167.936 50.6399 167.14V152.14C50.6399 148.957 51.9042 145.905 54.1546 143.655C56.405 141.404 59.4573 140.14 62.6399 140.14H137.64C140.027 140.14 142.316 141.088 144.004 142.776C145.692 144.464 146.64 146.753 146.64 149.14V161.14C146.64 163.527 145.692 165.816 144.004 167.504C142.316 169.192 140.027 170.14 137.64 170.14Z" fill="#495771"/>
<path d="M210.792 123.669L205.54 126.569L238.654 186.556L243.907 183.656L210.792 123.669Z" fill="#495771"/>
<path d="M218.64 239.14H92.6399V245.14H218.64V239.14Z" fill="#495771"/>
<path d="M92.6699 224.14H91.3799V230.14H92.6699V224.14Z" fill="#495771"/>
<path d="M27.9 230.14H11.64C11.1774 230.154 10.718 230.06 10.2976 229.866C9.87719 229.673 9.50728 229.385 9.21676 229.025C8.92625 228.664 8.72302 228.242 8.62296 227.79C8.5229 227.338 8.52874 226.869 8.64 226.42L13.5 207.28C16.5895 194.956 23.7082 184.017 33.7255 176.201C43.7427 168.385 56.0843 164.14 68.79 164.14H137.79C138.231 164.134 138.668 164.224 139.069 164.406C139.471 164.588 139.828 164.855 140.114 165.191C140.401 165.526 140.61 165.92 140.727 166.345C140.843 166.77 140.865 167.216 140.79 167.65L133.92 207.64C133.7 208.941 133.769 210.275 134.121 211.546C134.474 212.818 135.102 213.996 135.961 214.998C136.819 216 137.888 216.801 139.091 217.344C140.293 217.887 141.601 218.158 142.92 218.14H175.38C177.29 218.141 179.152 217.534 180.694 216.407C182.237 215.279 183.38 213.69 183.96 211.87L197.49 169.63L183 120.43L172.14 104.14H155.64V98.14H173.64C174.134 98.1426 174.62 98.2671 175.054 98.5026C175.489 98.7382 175.858 99.0773 176.13 99.49L188.13 117.49C188.3 117.739 188.431 118.012 188.52 118.3L203.52 168.82C203.698 169.397 203.698 170.013 203.52 170.59L189.69 213.7C188.718 216.723 186.812 219.36 184.246 221.231C181.679 223.102 178.586 224.11 175.41 224.11H142.83C140.65 224.113 138.496 223.642 136.517 222.727C134.538 221.813 132.782 220.479 131.371 218.817C129.96 217.155 128.929 215.205 128.348 213.104C127.768 211.003 127.652 208.8 128.01 206.65L134.01 170.11H68.79C57.4162 170.112 46.3696 173.916 37.406 180.917C28.4425 187.919 22.0765 197.715 19.32 208.75L15.51 224.14H27.9V230.14Z" fill="#495771"/>
<path d="M251.64 254.14C248.08 254.14 244.6 253.084 241.64 251.106C238.68 249.129 236.372 246.317 235.01 243.028C233.648 239.739 233.291 236.12 233.986 232.628C234.68 229.137 236.395 225.929 238.912 223.412C241.429 220.895 244.637 219.18 248.128 218.486C251.62 217.791 255.239 218.148 258.528 219.51C261.817 220.873 264.629 223.18 266.606 226.14C268.584 229.1 269.64 232.58 269.64 236.14C269.64 240.914 267.743 245.492 264.368 248.868C260.992 252.244 256.414 254.14 251.64 254.14ZM251.64 224.14C249.267 224.14 246.946 224.844 244.973 226.162C243 227.481 241.462 229.355 240.553 231.548C239.645 233.741 239.407 236.153 239.87 238.481C240.333 240.809 241.476 242.947 243.155 244.625C244.833 246.304 246.971 247.446 249.299 247.909C251.627 248.372 254.039 248.135 256.232 247.227C258.425 246.318 260.299 244.78 261.618 242.807C262.936 240.833 263.64 238.513 263.64 236.14C263.64 232.957 262.376 229.905 260.125 227.655C257.875 225.404 254.822 224.14 251.64 224.14Z" fill="#495771"/>
<path d="M217.14 128.14H187.41C186.585 128.15 185.788 127.845 185.181 127.288C184.573 126.73 184.201 125.962 184.14 125.14V107.14C184.14 106.344 184.456 105.581 185.019 105.019C185.581 104.456 186.344 104.14 187.14 104.14H217.14V110.14H190.14V122.14H217.14V128.14Z" fill="#495771"/>
<path d="M196.8 240.07C195.842 226.806 199.812 213.655 207.95 203.137C216.088 192.619 227.82 185.474 240.9 183.07C242.796 182.731 244.709 182.49 246.63 182.35C254.802 181.713 263.012 182.955 270.63 185.981C278.249 189.008 285.073 193.738 290.58 199.81C291.094 200.365 291.38 201.093 291.38 201.85C291.38 202.607 291.094 203.335 290.58 203.89L279.45 215.89L275.07 211.81L284.25 201.94C279.377 197.172 273.545 193.496 267.141 191.158C260.737 188.82 253.909 187.873 247.11 188.38C245.4 188.514 243.698 188.734 242.01 189.04C230.392 191.166 219.966 197.501 212.727 206.833C205.487 216.165 201.942 227.838 202.77 239.62L196.8 240.07Z" fill="#495771"/>
<path d="M251.64 272.14C243.214 272.136 235.056 269.176 228.588 263.777C222.119 258.377 217.75 250.88 216.24 242.59C215.842 240.463 215.641 238.304 215.64 236.14C215.635 228.871 217.83 221.771 221.936 215.774C226.043 209.777 231.869 205.163 238.648 202.54C245.426 199.917 252.84 199.407 259.914 201.078C266.988 202.748 273.391 206.521 278.28 211.9C282.979 217.06 286.077 223.474 287.197 230.363C288.317 237.252 287.411 244.317 284.588 250.7C281.765 257.083 277.148 262.508 271.299 266.314C265.449 270.121 258.619 272.145 251.64 272.14ZM251.64 206.14C243.683 206.14 236.053 209.301 230.427 214.927C224.801 220.553 221.64 228.184 221.64 236.14C221.596 237.927 221.716 239.715 222 241.48C222.829 246.051 224.708 250.367 227.489 254.088C230.271 257.809 233.878 260.833 238.027 262.922C242.177 265.011 246.754 266.108 251.4 266.126C256.045 266.145 260.632 265.084 264.797 263.028C268.963 260.971 272.594 257.976 275.405 254.277C278.215 250.578 280.129 246.277 280.994 241.713C281.859 237.149 281.652 232.446 280.39 227.975C279.128 223.504 276.844 219.388 273.72 215.95C270.921 212.874 267.512 210.413 263.711 208.724C259.91 207.035 255.799 206.155 251.64 206.14Z" fill="#495771"/>
<path d="M59.6401 272.14C54.0731 272.139 48.5823 270.846 43.5992 268.364C38.6162 265.882 34.2766 262.278 30.9215 257.836C27.5665 253.394 25.2874 248.234 24.2634 242.762C23.2394 237.29 23.4984 231.655 25.0201 226.3C25.2015 225.651 25.5962 225.082 26.1404 224.685C26.6846 224.288 27.3467 224.085 28.0201 224.11H47.8201V230.11H30.2701C29.4028 234.024 29.3287 238.072 30.0522 242.014C30.7756 245.957 32.282 249.715 34.4822 253.066C36.6824 256.417 39.5319 259.293 42.8623 261.524C46.1927 263.755 49.9365 265.296 53.8725 266.056C57.8085 266.816 61.8568 266.78 65.7785 265.949C69.7001 265.118 73.4154 263.509 76.7049 261.218C79.9944 258.927 82.7914 256 84.9307 252.61C87.0699 249.22 88.508 245.435 89.1601 241.48C89.4864 239.709 89.6471 237.911 89.6401 236.11C89.6368 234.094 89.4257 232.083 89.0101 230.11H71.5801V224.11H91.3801C92.0534 224.085 92.7155 224.288 93.2598 224.685C93.804 225.082 94.1986 225.651 94.3801 226.3C95.3001 229.489 95.7746 232.791 95.7901 236.11C95.7897 238.274 95.5888 240.433 95.1901 242.56C93.6821 250.881 89.2933 258.405 82.7931 263.813C76.2928 269.222 68.0961 272.17 59.6401 272.14Z" fill="#495771"/>
<path d="M59.6399 254.14C54.866 254.14 50.2876 252.244 46.912 248.868C43.5363 245.492 41.6399 240.914 41.6399 236.14C41.6396 232.236 42.9259 228.44 45.2999 225.34C45.5793 224.967 45.9417 224.665 46.3583 224.457C46.7748 224.248 47.2342 224.14 47.6999 224.14H71.6999C72.158 224.141 72.6099 224.247 73.0207 224.45C73.4315 224.653 73.7904 224.947 74.0699 225.31C76.4818 228.405 77.791 232.216 77.7899 236.14C77.79 238.516 77.3195 240.869 76.4055 243.063C75.4916 245.257 74.1523 247.248 72.4649 248.921C70.7775 250.595 68.7755 251.917 66.5743 252.813C64.3731 253.709 62.0163 254.16 59.6399 254.14ZM49.2899 230.14C48.2098 231.955 47.6397 234.028 47.6399 236.14C47.6399 239.323 48.9042 242.375 51.1546 244.625C53.405 246.876 56.4573 248.14 59.6399 248.14C62.8225 248.14 65.8747 246.876 68.1252 244.625C70.3756 242.375 71.6399 239.323 71.6399 236.14C71.6386 234.024 71.0575 231.949 69.9599 230.14H49.3199H49.2899Z" fill="#495771"/>
</g>
<defs>
<clipPath id="clip0_94_193">
<rect width="300" height="300" fill="white"/>
</clipPath>
</defs>
</svg>
