<svg width="300" height="300" viewBox="0 0 300 300" fill="none" xmlns="http://www.w3.org/2000/svg">
<g clip-path="url(#clip0_94_108)">
<path d="M289.5 190.26L277.5 215.25H253.5L241.5 179.25L259.5 190.26L270.48 145.26L276.48 192.24L289.5 190.26Z" fill="#14FF00"/>
<path d="M93.12 179.79V219.03L76.5 203.49L59.85 219.03V179.79H93.12Z" fill="#FFA500"/>
<path d="M90 119.25V149.25L76.5 136.74L63 149.25V119.25H90Z" fill="#FFA500"/>
<path d="M226.5 257.25H220.5V14.25H64.5V116.25H58.5V11.25C58.5 10.4544 58.8161 9.69129 59.3787 9.12868C59.9413 8.56607 60.7044 8.25 61.5 8.25H223.5C224.296 8.25 225.059 8.56607 225.621 9.12868C226.184 9.69129 226.5 10.4544 226.5 11.25V257.25Z" fill="#495771"/>
<path d="M292.5 291.75H7.5C6.70435 291.75 5.94129 291.434 5.37868 290.871C4.81607 290.309 4.5 289.546 4.5 288.75V257.25C4.5 256.454 4.81607 255.691 5.37868 255.129C5.94129 254.566 6.70435 254.25 7.5 254.25H250.5V260.25H10.5V285.75H289.5V260.25H280.5V254.25H292.5C293.296 254.25 294.059 254.566 294.621 255.129C295.184 255.691 295.5 256.454 295.5 257.25V288.75C295.5 289.546 295.184 290.309 294.621 290.871C294.059 291.434 293.296 291.75 292.5 291.75Z" fill="#495771"/>
<path d="M121.5 175.05H115.5V119.55H37.5V175.05H31.5V116.55C31.5 115.754 31.8161 114.991 32.3787 114.429C32.9413 113.866 33.7044 113.55 34.5 113.55H118.5C119.296 113.55 120.059 113.866 120.621 114.429C121.184 114.991 121.5 115.754 121.5 116.55V175.05Z" fill="#495771"/>
<path d="M136.5 257.16H130.5V179.16H22.5V257.16H16.5V176.16C16.5 175.364 16.8161 174.601 17.3787 174.039C17.9413 173.476 18.7044 173.16 19.5 173.16H133.5C134.296 173.16 135.059 173.476 135.621 174.039C136.184 174.601 136.5 175.364 136.5 176.16V257.16Z" fill="#495771"/>
<path d="M202.5 152.25H181.5C180.704 152.25 179.941 151.934 179.379 151.371C178.816 150.809 178.5 150.046 178.5 149.25V101.25C178.5 100.454 178.816 99.6913 179.379 99.1287C179.941 98.5661 180.704 98.25 181.5 98.25H202.5C203.296 98.25 204.059 98.5661 204.621 99.1287C205.184 99.6913 205.5 100.454 205.5 101.25V149.25C205.5 150.046 205.184 150.809 204.621 151.371C204.059 151.934 203.296 152.25 202.5 152.25ZM184.5 146.25H199.5V104.25H184.5V146.25Z" fill="#495771"/>
<path d="M194.49 119.25H158.49V125.25H194.49V119.25Z" fill="#495771"/>
<path d="M280.5 260.25H250.5C249.772 260.257 249.066 259.999 248.514 259.525C247.962 259.05 247.602 258.391 247.5 257.67L241.5 215.67C241.44 215.242 241.472 214.807 241.596 214.393C241.719 213.979 241.93 213.596 242.215 213.272C242.5 212.947 242.852 212.687 243.246 212.511C243.64 212.335 244.068 212.246 244.5 212.25H286.5C286.932 212.246 287.36 212.335 287.754 212.511C288.148 212.687 288.5 212.947 288.785 213.272C289.07 213.596 289.281 213.979 289.405 214.393C289.528 214.807 289.561 215.242 289.5 215.67L283.5 257.67C283.398 258.391 283.038 259.05 282.486 259.525C281.934 259.999 281.228 260.257 280.5 260.25ZM253.11 254.25H277.92L283.05 218.25H247.95L253.11 254.25Z" fill="#495771"/>
<path d="M280.2 216.54L274.8 213.93L284.34 194.07L276.93 195.21C276.536 195.269 276.133 195.249 275.747 195.151C275.36 195.053 274.997 194.878 274.678 194.638C274.36 194.398 274.092 194.097 273.892 193.752C273.691 193.407 273.561 193.026 273.51 192.63L269.55 161.7L262.41 190.98C262.299 191.438 262.082 191.864 261.775 192.223C261.469 192.581 261.082 192.863 260.647 193.044C260.211 193.225 259.739 193.301 259.269 193.266C258.799 193.23 258.343 193.084 257.94 192.84L246.93 186L256.32 214.2L250.62 216.09L238.62 180.09C238.465 179.518 238.484 178.913 238.672 178.352C238.861 177.79 239.212 177.297 239.68 176.935C240.148 176.572 240.714 176.357 241.304 176.315C241.895 176.273 242.485 176.407 243 176.7L257.49 185.7L267.48 144.69C267.644 144.024 268.032 143.435 268.577 143.02C269.123 142.605 269.795 142.39 270.48 142.41C271.181 142.446 271.847 142.727 272.363 143.204C272.878 143.681 273.21 144.324 273.3 145.02L279 188.82L288.99 187.29C289.529 187.21 290.079 187.277 290.582 187.486C291.085 187.694 291.521 188.036 291.845 188.473C292.169 188.911 292.367 189.429 292.419 189.971C292.471 190.513 292.375 191.059 292.14 191.55L280.2 216.54Z" fill="#49714D"/>
</g>
<defs>
<clipPath id="clip0_94_108">
<rect width="300" height="300" fill="white"/>
</clipPath>
</defs>
</svg>
