<svg width="287" height="130" viewBox="0 0 287 130" fill="none" xmlns="http://www.w3.org/2000/svg">
<path d="M106.611 126V109.2H109.587C110.771 109.2 111.691 109.576 112.347 110.328C113.003 111.08 113.331 112.432 113.331 114.384V114.504C113.331 116.936 112.739 118.48 111.555 119.136L113.547 126H111.579L109.707 119.568H108.531V126H106.611ZM111.435 114.744V114.024C111.435 112.792 111.267 111.936 110.931 111.456C110.611 110.976 110.163 110.736 109.587 110.736H108.531V118.056H109.587C110.819 118.056 111.435 116.952 111.435 114.744ZM117.789 118.392V124.464H121.965V126H115.869V109.2H121.893V110.736H117.789V116.856H121.533V118.392H117.789ZM126.366 126H124.494V109.2H127.422L129.462 120.84L131.526 109.2H134.454V126H132.582V110.832L130.542 122.4H128.406L126.366 110.832V126ZM144.654 114.216V120.984C144.654 123.016 144.326 124.424 143.67 125.208C143.03 125.976 142.102 126.36 140.886 126.36C139.686 126.36 138.758 125.976 138.102 125.208C137.462 124.424 137.142 123.016 137.142 120.984V114.216C137.142 112.184 137.462 110.784 138.102 110.016C138.758 109.232 139.686 108.84 140.886 108.84C142.102 108.84 143.03 109.232 143.67 110.016C144.326 110.784 144.654 112.184 144.654 114.216ZM142.758 121.344V113.856C142.758 111.552 142.142 110.4 140.91 110.4C140.318 110.4 139.854 110.648 139.518 111.144C139.198 111.64 139.038 112.544 139.038 113.856V121.344C139.038 122.656 139.198 123.56 139.518 124.056C139.854 124.552 140.318 124.8 140.91 124.8C142.142 124.8 142.758 123.648 142.758 121.344ZM148.137 109.2L150.537 123.216L152.937 109.2H154.857L151.737 126H149.337L146.217 109.2H148.137ZM161.845 126L161.101 121.632H157.717L156.997 126H155.077L158.149 109.2H160.693L163.765 126H161.845ZM159.421 111.624L157.981 120.096H160.837L159.421 111.624ZM165.65 126V109.2H167.57V124.464H171.29V126H165.65ZM178.333 122.232C178.333 120.952 177.901 119.968 177.037 119.28L175.117 117.864C173.677 116.84 172.957 115.328 172.957 113.328C172.957 111.664 173.269 110.504 173.893 109.848C174.533 109.176 175.397 108.84 176.485 108.84C177.589 108.84 178.445 109.152 179.053 109.776C179.661 110.384 180.029 111.496 180.157 113.112L178.333 113.52C178.269 111.472 177.669 110.448 176.533 110.448C175.413 110.448 174.853 111.32 174.853 113.064C174.853 113.832 174.933 114.456 175.093 114.936C175.269 115.416 175.597 115.848 176.077 116.232L177.973 117.648C178.421 117.968 178.781 118.272 179.053 118.56C179.325 118.848 179.581 119.312 179.821 119.952C180.077 120.576 180.205 121.32 180.205 122.184C180.205 123.72 179.869 124.8 179.197 125.424C178.541 126.048 177.645 126.36 176.509 126.36C175.373 126.36 174.485 125.992 173.845 125.256C173.205 124.52 172.813 123.208 172.669 121.32L174.469 121.008C174.533 122.368 174.725 123.336 175.045 123.912C175.381 124.488 175.845 124.776 176.437 124.776C177.701 124.776 178.333 123.928 178.333 122.232Z" fill="#FFA500"/>
<mask id="path-2-outside-1_56_83" maskUnits="userSpaceOnUse" x="38" y="12" width="213" height="92" fill="black">
<rect fill="white" x="38" y="12" width="213" height="92"/>
<path d="M39.2515 103V13.4H55.1235C61.4382 13.4 66.3448 15.4053 69.8435 19.416C73.3422 23.4267 75.0915 30.6373 75.0915 41.048V41.688C75.0915 54.6587 71.9342 62.8933 65.6195 66.392L76.2435 103H65.7475L55.7635 68.696H49.4915V103H39.2515ZM64.9795 42.968V39.128C64.9795 32.5573 64.0835 27.992 62.2915 25.432C60.5848 22.872 58.1955 21.592 55.1235 21.592H49.4915V60.632H55.1235C61.6942 60.632 64.9795 54.744 64.9795 42.968ZM118.707 103L114.739 79.704H96.6905L92.8505 103H82.6105L98.9945 13.4H112.562L128.947 103H118.707ZM105.779 26.328L98.0985 71.512H113.331L105.779 26.328ZM139.002 103V13.4H154.874C161.274 13.4 166.18 15.4907 169.594 19.672C173.092 23.768 174.842 31.2347 174.842 42.072V42.712C174.842 53.5493 173.092 61.016 169.594 65.112C166.18 69.208 161.274 71.256 154.874 71.256H149.242V103H139.002ZM164.729 44.376V40.408C164.729 27.864 161.444 21.592 154.874 21.592H149.242V63.192H154.874C161.444 63.192 164.729 56.92 164.729 44.376ZM185.502 103V13.4H195.742V103H185.502ZM211.877 103V13.4H229.285C235.77 13.4 240.762 15.4907 244.261 19.672C247.759 23.768 249.509 31.2347 249.509 42.072V74.328C249.509 85.1653 247.759 92.6747 244.261 96.856C240.762 100.952 235.77 103 229.285 103H211.877ZM239.397 76.632V39.896C239.397 27.6933 236.026 21.592 229.285 21.592H222.117V94.936H229.285C236.026 94.936 239.397 88.8347 239.397 76.632Z"/>
</mask>
<path d="M39.2515 103V13.4H55.1235C61.4382 13.4 66.3448 15.4053 69.8435 19.416C73.3422 23.4267 75.0915 30.6373 75.0915 41.048V41.688C75.0915 54.6587 71.9342 62.8933 65.6195 66.392L76.2435 103H65.7475L55.7635 68.696H49.4915V103H39.2515ZM64.9795 42.968V39.128C64.9795 32.5573 64.0835 27.992 62.2915 25.432C60.5848 22.872 58.1955 21.592 55.1235 21.592H49.4915V60.632H55.1235C61.6942 60.632 64.9795 54.744 64.9795 42.968ZM118.707 103L114.739 79.704H96.6905L92.8505 103H82.6105L98.9945 13.4H112.562L128.947 103H118.707ZM105.779 26.328L98.0985 71.512H113.331L105.779 26.328ZM139.002 103V13.4H154.874C161.274 13.4 166.18 15.4907 169.594 19.672C173.092 23.768 174.842 31.2347 174.842 42.072V42.712C174.842 53.5493 173.092 61.016 169.594 65.112C166.18 69.208 161.274 71.256 154.874 71.256H149.242V103H139.002ZM164.729 44.376V40.408C164.729 27.864 161.444 21.592 154.874 21.592H149.242V63.192H154.874C161.444 63.192 164.729 56.92 164.729 44.376ZM185.502 103V13.4H195.742V103H185.502ZM211.877 103V13.4H229.285C235.77 13.4 240.762 15.4907 244.261 19.672C247.759 23.768 249.509 31.2347 249.509 42.072V74.328C249.509 85.1653 247.759 92.6747 244.261 96.856C240.762 100.952 235.77 103 229.285 103H211.877ZM239.397 76.632V39.896C239.397 27.6933 236.026 21.592 229.285 21.592H222.117V94.936H229.285C236.026 94.936 239.397 88.8347 239.397 76.632Z" fill="#FFA500"/>
<path d="M39.2515 103H38.2515V104H39.2515V103ZM39.2515 13.4V12.4H38.2515V13.4H39.2515ZM69.8435 19.416L70.5971 18.7586L70.5971 18.7586L69.8435 19.416ZM65.6195 66.392L65.1349 65.5173L64.4367 65.9041L64.6591 66.6707L65.6195 66.392ZM76.2435 103V104H77.575L77.2039 102.721L76.2435 103ZM65.7475 103L64.7873 103.279L64.9971 104H65.7475V103ZM55.7635 68.696L56.7237 68.4165L56.5139 67.696H55.7635V68.696ZM49.4915 68.696V67.696H48.4915V68.696H49.4915ZM49.4915 103V104H50.4915V103H49.4915ZM62.2915 25.432L61.4595 25.9867L61.4658 25.9962L61.4723 26.0055L62.2915 25.432ZM49.4915 21.592V20.592H48.4915V21.592H49.4915ZM49.4915 60.632H48.4915V61.632H49.4915V60.632ZM40.2515 103V13.4H38.2515V103H40.2515ZM39.2515 14.4H55.1235V12.4H39.2515V14.4ZM55.1235 14.4C61.2085 14.4 65.8169 16.3213 69.0899 20.0734L70.5971 18.7586C66.8728 14.4893 61.6679 12.4 55.1235 12.4V14.4ZM69.0899 20.0734C72.3352 23.7935 74.0915 30.68 74.0915 41.048H76.0915C76.0915 30.5946 74.3491 23.0598 70.5971 18.7586L69.0899 20.0734ZM74.0915 41.048V41.688H76.0915V41.048H74.0915ZM74.0915 41.688C74.0915 54.5875 70.9391 62.3014 65.1349 65.5173L66.1041 67.2667C72.9292 63.4853 76.0915 54.7298 76.0915 41.688H74.0915ZM64.6591 66.6707L75.2831 103.279L77.2039 102.721L66.5799 66.1133L64.6591 66.6707ZM76.2435 102H65.7475V104H76.2435V102ZM66.7077 102.721L56.7237 68.4165L54.8033 68.9754L64.7873 103.279L66.7077 102.721ZM55.7635 67.696H49.4915V69.696H55.7635V67.696ZM48.4915 68.696V103H50.4915V68.696H48.4915ZM49.4915 102H39.2515V104H49.4915V102ZM65.9795 42.968V39.128H63.9795V42.968H65.9795ZM65.9795 39.128C65.9795 32.5354 65.0938 27.6915 63.1107 24.8585L61.4723 26.0055C63.0732 28.2925 63.9795 32.5793 63.9795 39.128H65.9795ZM63.1236 24.8773C61.2318 22.0396 58.5305 20.592 55.1235 20.592V22.592C57.8605 22.592 59.9379 23.7044 61.4595 25.9867L63.1236 24.8773ZM55.1235 20.592H49.4915V22.592H55.1235V20.592ZM48.4915 21.592V60.632H50.4915V21.592H48.4915ZM49.4915 61.632H55.1235V59.632H49.4915V61.632ZM55.1235 61.632C56.9202 61.632 58.54 61.2278 59.9484 60.3865C61.3554 59.5459 62.497 58.3015 63.3888 56.7033C65.1555 53.537 65.9795 48.9162 65.9795 42.968H63.9795C63.9795 48.7958 63.1609 53.007 61.6422 55.7287C60.8914 57.0745 59.9796 58.0381 58.9226 58.6695C57.867 59.3001 56.6122 59.632 55.1235 59.632V61.632ZM118.707 103L117.721 103.168L117.862 104H118.707V103ZM114.739 79.704L115.724 79.5361L115.583 78.704H114.739V79.704ZM96.6905 79.704V78.704H95.8418L95.7038 79.5414L96.6905 79.704ZM92.8505 103V104H93.6992L93.8372 103.163L92.8505 103ZM82.6105 103L81.6268 102.82L81.4111 104H82.6105V103ZM98.9945 13.4V12.4H98.1608L98.0108 13.2201L98.9945 13.4ZM112.562 13.4L113.546 13.2201L113.396 12.4H112.562V13.4ZM128.947 103V104H130.146L129.93 102.82L128.947 103ZM105.779 26.328L106.765 26.1631L104.793 26.1604L105.779 26.328ZM98.0985 71.512L97.1126 71.3444L96.9142 72.512H98.0985V71.512ZM113.331 71.512V72.512H114.512L114.317 71.3471L113.331 71.512ZM119.692 102.832L115.724 79.5361L113.753 79.8719L117.721 103.168L119.692 102.832ZM114.739 78.704H96.6905V80.704H114.739V78.704ZM95.7038 79.5414L91.8638 102.837L93.8372 103.163L97.6772 79.8666L95.7038 79.5414ZM92.8505 102H82.6105V104H92.8505V102ZM83.5942 103.18L99.9782 13.5799L98.0108 13.2201L81.6268 102.82L83.5942 103.18ZM98.9945 14.4H112.562V12.4H98.9945V14.4ZM111.579 13.5799L127.963 103.18L129.93 102.82L113.546 13.2201L111.579 13.5799ZM128.947 102H118.707V104H128.947V102ZM104.793 26.1604L97.1126 71.3444L99.0844 71.6796L106.764 26.4956L104.793 26.1604ZM98.0985 72.512H113.331V70.512H98.0985V72.512ZM114.317 71.3471L106.765 26.1631L104.792 26.4928L112.344 71.6769L114.317 71.3471ZM139.002 103H138.002V104H139.002V103ZM139.002 13.4V12.4H138.002V13.4H139.002ZM169.594 19.672L168.819 20.3044L168.826 20.313L168.833 20.3215L169.594 19.672ZM169.594 65.112L168.833 64.4625L168.825 64.4718L169.594 65.112ZM149.242 71.256V70.256H148.242V71.256H149.242ZM149.242 103V104H150.242V103H149.242ZM149.242 21.592V20.592H148.242V21.592H149.242ZM149.242 63.192H148.242V64.192H149.242V63.192ZM140.002 103V13.4H138.002V103H140.002ZM139.002 14.4H154.874V12.4H139.002V14.4ZM154.874 14.4C161.035 14.4 165.631 16.3998 168.819 20.3044L170.368 19.0396C166.729 14.5815 161.512 12.4 154.874 12.4V14.4ZM168.833 20.3215C172.083 24.1257 173.842 31.2687 173.842 42.072H175.842C175.842 31.2006 174.102 23.4103 170.354 19.0225L168.833 20.3215ZM173.842 42.072V42.712H175.842V42.072H173.842ZM173.842 42.712C173.842 53.5153 172.083 60.6583 168.833 64.4625L170.354 65.7615C174.102 61.3737 175.842 53.5834 175.842 42.712H173.842ZM168.825 64.4718C165.64 68.2938 161.042 70.256 154.874 70.256V72.256C161.505 72.256 166.72 70.1222 170.362 65.7522L168.825 64.4718ZM154.874 70.256H149.242V72.256H154.874V70.256ZM148.242 71.256V103H150.242V71.256H148.242ZM149.242 102H139.002V104H149.242V102ZM165.729 44.376V40.408H163.729V44.376H165.729ZM165.729 40.408C165.729 34.0813 164.906 29.1827 163.151 25.832C162.266 24.1419 161.13 22.8202 159.722 21.9243C158.31 21.0258 156.682 20.592 154.874 20.592V22.592C156.35 22.592 157.597 22.9421 158.649 23.6117C159.705 24.2837 160.622 25.3141 161.38 26.76C162.91 29.6813 163.729 34.1907 163.729 40.408H165.729ZM154.874 20.592H149.242V22.592H154.874V20.592ZM148.242 21.592V63.192H150.242V21.592H148.242ZM149.242 64.192H154.874V62.192H149.242V64.192ZM154.874 64.192C156.682 64.192 158.31 63.7581 159.722 62.8597C161.13 61.9637 162.266 60.6421 163.151 58.952C164.906 55.6013 165.729 50.7027 165.729 44.376H163.729C163.729 50.5933 162.91 55.1027 161.38 58.024C160.622 59.4699 159.705 60.5002 158.649 61.1723C157.597 61.8418 156.35 62.192 154.874 62.192V64.192ZM185.502 103H184.502V104H185.502V103ZM185.502 13.4V12.4H184.502V13.4H185.502ZM195.742 13.4H196.742V12.4H195.742V13.4ZM195.742 103V104H196.742V103H195.742ZM186.502 103V13.4H184.502V103H186.502ZM185.502 14.4H195.742V12.4H185.502V14.4ZM194.742 13.4V103H196.742V13.4H194.742ZM195.742 102H185.502V104H195.742V102ZM211.877 103H210.877V104H211.877V103ZM211.877 13.4V12.4H210.877V13.4H211.877ZM244.261 19.672L243.494 20.3138L243.5 20.3215L244.261 19.672ZM244.261 96.856L245.021 97.5055L245.027 97.4977L244.261 96.856ZM222.117 21.592V20.592H221.117V21.592H222.117ZM222.117 94.936H221.117V95.936H222.117V94.936ZM212.877 103V13.4H210.877V103H212.877ZM211.877 14.4H229.285V12.4H211.877V14.4ZM229.285 14.4C235.536 14.4 240.221 16.4031 243.494 20.3137L245.027 19.0303C241.302 14.5782 236.004 12.4 229.285 12.4V14.4ZM243.5 20.3215C246.75 24.1257 248.509 31.2687 248.509 42.072H250.509C250.509 31.2006 248.769 23.4103 245.021 19.0225L243.5 20.3215ZM248.509 42.072V74.328H250.509V42.072H248.509ZM248.509 74.328C248.509 85.1277 246.751 92.3212 243.494 96.2143L245.027 97.4977C248.767 93.0281 250.509 85.203 250.509 74.328H248.509ZM243.5 96.2065C240.23 100.035 235.543 102 229.285 102V104C235.997 104 241.293 101.869 245.021 97.5055L243.5 96.2065ZM229.285 102H211.877V104H229.285V102ZM240.397 76.632V39.896H238.397V76.632H240.397ZM240.397 39.896C240.397 33.7353 239.551 28.9562 237.744 25.6844C236.832 24.0334 235.664 22.7482 234.225 21.8798C232.784 21.0103 231.126 20.592 229.285 20.592V22.592C230.814 22.592 232.105 22.9363 233.192 23.5922C234.281 24.2491 235.22 25.2519 235.993 26.6516C237.556 29.4811 238.397 33.854 238.397 39.896H240.397ZM229.285 20.592H222.117V22.592H229.285V20.592ZM221.117 21.592V94.936H223.117V21.592H221.117ZM222.117 95.936H229.285V93.936H222.117V95.936ZM229.285 95.936C231.126 95.936 232.784 95.5177 234.225 94.6482C235.664 93.7798 236.832 92.4946 237.744 90.8436C239.551 87.5718 240.397 82.7926 240.397 76.632H238.397C238.397 82.674 237.556 87.0469 235.993 89.8764C235.22 91.2761 234.281 92.2789 233.192 92.9358C232.105 93.5917 230.814 93.936 229.285 93.936V95.936Z" fill="black" mask="url(#path-2-outside-1_56_83)"/>
</svg>
