<svg width="674" height="586" viewBox="0 0 674 586" fill="none" xmlns="http://www.w3.org/2000/svg">
<ellipse cx="304" cy="304" rx="257" ry="251" fill="white" stroke="url(#paint0_linear_66_86)" stroke-width="3" stroke-linecap="round" stroke-linejoin="round" stroke-dasharray="10 10"/>
<path d="M406.45 500C419.177 482.684 428.913 478.555 452.045 483.5C470.717 495.462 472.441 503.006 475.093 516.5V532C473.608 548.991 469.631 556.67 461.064 569.5C447.47 583.764 438.549 582.419 422.984 582.5C418.538 581.505 414.927 580.227 411.912 578.5C409.15 576.918 406.888 574.96 404.944 572.5C402.086 568.884 399.914 564.184 397.845 558C397.37 556.58 396.901 555.081 396.429 553.5C394.646 529.634 396.532 517.759 406.45 500Z" fill="black"/>
<path d="M263.152 571.5C256.259 576.832 252.006 579.518 242.108 582.5C241.307 582.9 229.415 582.667 223.57 582.5C210.157 575.643 204.605 570.59 200.522 558V542.5L208.539 548C226.409 555.833 262.35 571.5 263.152 571.5Z" fill="black"/>
<path d="M411.912 578.5L274.175 575.5L263.152 571.5C262.35 571.5 226.409 555.833 208.539 548L360.855 551L404.944 572.5C406.888 574.96 409.15 576.918 411.912 578.5Z" fill="#FFA500"/>
<path d="M528.203 284.5C533.238 286.815 533.251 289.296 530.208 295L526.565 295.673L526.7 295V284.726L528.203 284.5Z" fill="black"/>
<path fill-rule="evenodd" clip-rule="evenodd" d="M483.611 315.5C485.72 306.945 486.933 302.594 489.623 302.5L483.109 291.274L481.606 291.5C480.433 291.833 479.553 292.674 478.848 294C477.392 296.739 476.686 301.549 475.707 308.228C475.67 308.482 475.632 308.74 475.594 309L441.022 442L448.036 451L479.402 320.5L480.604 315.5H483.611Z" fill="black"/>
<path d="M577.305 206.5C569.191 230.605 558.901 242.778 542.733 265L526.7 284.726V295L526.565 295.673L524.696 305C510.417 310.814 502.87 309.797 489.623 306V302.5L483.109 291.274L489.623 278L509.665 266L533.998 227L542.733 213C544.039 208.703 544.058 206.294 542.733 202L533.214 187C533.635 169.613 540.512 164.511 555.76 157.5C557.494 161.281 559.645 165.997 561.912 171C569.038 186.728 577.305 205.286 577.305 206.5Z" fill="#9F9F9F"/>
<path d="M392.922 217.5L391.419 199C402.415 196.528 408.652 197.311 419.978 205V220C416.587 217.887 413.554 216.707 410.458 216.174C405.398 215.303 400.168 216.16 392.922 217.5Z" fill="#9F9F9F"/>
<path d="M483.611 315.5C485.72 306.945 486.933 302.594 489.623 302.5V306C502.87 309.797 510.417 310.814 524.696 305L526.565 295.673L530.208 295C533.251 289.296 533.238 286.815 528.203 284.5L526.7 284.726L542.733 265L572.796 385L642.441 484.5L671 507L642.441 581.5C633.624 585.613 630.806 584.424 628.411 578V518.5L524.696 404C518.354 398.366 516.226 394.937 514.174 388.5C512.17 380.9 490.959 341.333 480.604 322.5L479.402 320.5L480.604 315.5H483.611Z" fill="#1D3449"/>
<path d="M555.76 157.5C540.512 164.511 533.635 169.613 533.214 187C534.483 189 534.266 214.5 533.998 227L509.665 266L489.623 278L483.109 291.274L481.606 291.5C480.433 291.833 479.553 292.674 478.848 294L485.615 276C459.229 248.781 443.651 234.538 410.458 216.174C413.554 216.707 416.587 217.887 419.978 220V205C408.652 197.311 402.415 196.528 391.419 199C395.26 181.167 403.143 145.1 403.945 143.5C414.372 130.73 422.533 125.839 439.519 119.5L469.581 110C483.276 109.167 511.068 107.514 512.671 107.572C527.492 109.732 533.314 113.787 541.23 123.5L566.282 158C564.836 156.061 558.031 155.722 555.76 157.5Z" fill="#FFA500"/>
<path d="M396.429 396L360.855 526.5L360.963 526.592C344.028 527.308 242.553 532.039 190 534.5C190 532.5 218.726 446.667 233.09 404C283.013 399.566 315.718 397.185 359.352 396.348C370.791 396.129 382.981 396.016 396.429 396Z" fill="#806C61"/>
<path d="M208.539 548L200.522 542.5L190 534.5C242.553 532.039 344.028 527.308 360.963 526.592L397.845 558C399.914 564.184 402.086 568.884 404.944 572.5L360.855 551L208.539 548Z" fill="#806C51"/>
<path d="M448.036 451L456.554 463.5L452.045 483.5C428.913 478.555 419.177 482.684 406.45 500C396.532 517.759 394.646 529.634 396.429 553.5C396.901 555.081 397.37 556.58 397.845 558L360.963 526.592L360.855 526.5L396.429 396L441.022 442L448.036 451Z" fill="#806C61"/>
<path d="M289.206 237L410.458 216.174L359.352 396.348C315.718 397.185 283.013 399.566 233.09 404C249.277 330.675 262.076 294.834 289.206 237Z" fill="#806C51"/>
<path d="M475.594 309L441.022 442L396.429 396C382.981 396.016 370.791 396.129 359.352 396.348L410.458 216.174C443.651 234.538 459.229 248.781 485.615 276L478.848 294C477.392 296.739 476.686 301.549 475.707 308.228L475.594 309Z" fill="#806C51"/>
<path d="M530.208 295C533.251 289.296 533.238 286.815 528.203 284.5L526.7 284.726M530.208 295C528.952 295.232 527.74 295.456 526.565 295.673M530.208 295L526.565 295.673M489.623 302.5C486.933 302.594 485.72 306.945 483.611 315.5H480.604L479.402 320.5M489.623 302.5V306C502.87 309.797 510.417 310.814 524.696 305L526.565 295.673M489.623 302.5L483.109 291.274M475.594 309L441.022 442M475.594 309C475.632 308.74 475.67 308.482 475.707 308.228M475.594 309L475.707 308.228M448.036 451L456.554 463.5L452.045 483.5M448.036 451L479.402 320.5M448.036 451L441.022 442M452.045 483.5C428.913 478.555 419.177 482.684 406.45 500C396.532 517.759 394.646 529.634 396.429 553.5C396.901 555.081 397.37 556.58 397.845 558M452.045 483.5C470.717 495.462 472.441 503.006 475.093 516.5V532C473.608 548.991 469.631 556.67 461.064 569.5C447.47 583.764 438.549 582.419 422.984 582.5C418.538 581.505 414.927 580.227 411.912 578.5M411.912 578.5L274.175 575.5L263.152 571.5M411.912 578.5C409.15 576.918 406.888 574.96 404.944 572.5M263.152 571.5C256.259 576.832 252.006 579.518 242.108 582.5C241.307 582.9 229.415 582.667 223.57 582.5C210.157 575.643 204.605 570.59 200.522 558V542.5M263.152 571.5C262.35 571.5 226.409 555.833 208.539 548M200.522 542.5L208.539 548M200.522 542.5L190 534.5M208.539 548L360.855 551L404.944 572.5M404.944 572.5C402.086 568.884 399.914 564.184 397.845 558M441.022 442L396.429 396M396.429 396L360.855 526.5L360.963 526.592M396.429 396C382.981 396.016 370.791 396.129 359.352 396.348M397.845 558L360.963 526.592M363.36 526.5C363.206 526.5 362.38 526.532 360.963 526.592M190 534.5C190 532.5 218.726 446.667 233.09 404M190 534.5C242.553 532.039 344.028 527.308 360.963 526.592M233.09 404C249.277 330.675 262.076 294.834 289.206 237L410.458 216.174M233.09 404C283.013 399.566 315.718 397.185 359.352 396.348M542.733 265L572.796 385L642.441 484.5L671 507L642.441 581.5C633.624 585.613 630.806 584.424 628.411 578V518.5L524.696 404C518.354 398.366 516.226 394.937 514.174 388.5C512.17 380.9 490.959 341.333 480.604 322.5L479.402 320.5M542.733 265C558.901 242.778 569.191 230.605 577.305 206.5C577.305 205.286 569.038 186.728 561.912 171M542.733 265L526.7 284.726M555.76 157.5C540.512 164.511 533.635 169.613 533.214 187M555.76 157.5C557.494 161.281 559.645 165.997 561.912 171M555.76 157.5C558.031 155.722 564.836 156.061 566.282 158M533.214 187L542.733 202C544.058 206.294 544.039 208.703 542.733 213L533.998 227M533.214 187L526.7 165M533.214 187C534.483 189 534.266 214.5 533.998 227M483.109 291.274L481.606 291.5C480.433 291.833 479.553 292.674 478.848 294M483.109 291.274L489.623 278L509.665 266L533.998 227M526.7 284.726V295L526.565 295.673M566.282 158L541.23 123.5C533.314 113.787 527.492 109.732 512.671 107.572M566.282 158C568.166 164.854 566.84 167.518 561.912 171M512.17 107.5C512.338 107.524 512.505 107.548 512.671 107.572M512.671 107.572C511.068 107.514 483.276 109.167 469.581 110L439.519 119.5C422.533 125.839 414.372 130.73 403.945 143.5C403.143 145.1 395.26 181.167 391.419 199M391.419 199L392.922 217.5C400.168 216.16 405.398 215.303 410.458 216.174M391.419 199C402.415 196.528 408.652 197.311 419.978 205M419.978 205V220C416.587 217.887 413.554 216.707 410.458 216.174M419.978 205L417.974 179M478.848 294L485.615 276C459.229 248.781 443.651 234.538 410.458 216.174M478.848 294C477.392 296.739 476.686 301.549 475.707 308.228M410.458 216.174L359.352 396.348" stroke="black" stroke-width="4"/>
<ellipse cx="50.1042" cy="50" rx="50.1042" ry="50" transform="matrix(-1 0 0 1 518.683 2)" fill="#9F9F9F" stroke="black" stroke-width="4"/>
<ellipse cx="442" cy="534.5" rx="18" ry="21.5" fill="#D9D9D9"/>
<path d="M62.8125 348.723C51.7193 348.936 49.1558 352.462 48.0781 362.007L46.2812 380.089C40.1505 391.856 35.6169 395.604 26.5156 399.646L17.5312 400.015L8.1875 390.052H7.10938L1 404.812L1.71875 405.55L7.46875 400.384C15.6124 413.135 18.9688 416.989 32.9844 418.096C47 419.203 49.6582 409.291 64.6094 397.801C84.8496 394.088 91.5811 401.327 98.75 424L116 418.096L106.656 414.406L105.938 401.86C100.299 386.151 95.259 379.19 76.4688 376.399L78.2656 368.649C81.3802 368.403 87.6908 367.456 88.3281 367.542C95.6083 368.533 111.243 357.527 113.125 350.937C100.644 353.504 93.4141 354.311 79.7031 353.52L62.8125 348.723Z" fill="#D9D9D9" stroke="black" stroke-width="0.5"/>
<path d="M74.7812 335.439C74.7812 341.617 69.7457 346.628 63.5312 346.628C57.3168 346.628 52.2812 341.617 52.2812 335.439C52.2812 329.261 57.3168 324.25 63.5312 324.25C69.7457 324.25 74.7812 329.261 74.7812 335.439Z" fill="#D9D9D9" stroke="black" stroke-width="0.5"/>
<path d="M177.981 119.893L177.115 134.409L176.731 136.223L199.327 137.587L207.404 138.074L216.058 138.596L216.827 138.642C216.981 137.306 217.126 136.012 217.264 134.754C218.952 119.293 219.44 109.26 220.192 92.3302L220.769 45.4131C220.774 40.5652 220.658 37.8871 220.096 33.2302L183.942 34.7855L182.019 47.0548C181.489 49.4206 181.297 51.092 181.154 54.7447V70.9885C181.121 81.1388 180.575 87.0009 179.423 97.5144L177.981 119.893Z" fill="#7D7D7D"/>
<path d="M67.8846 40.6609C68.9543 45.6613 69.217 48.8729 69.4231 54.9175C70.0737 66.2518 69.91 72.4173 69.4231 83.3442C67.5366 108.117 66.3633 128.138 65.2726 128.726L101.25 131.385C102.368 127.237 102.842 124.714 103.173 119.547L103.76 115.573L103.942 109.006L105.577 84.4675V72.0254V67.7916C105.554 65.5983 105.549 64.3687 105.577 62.1754C105.158 52.7081 103.725 47.8009 100.481 39.2785C87.7453 39.3044 80.6019 39.0995 67.8846 40.4017H67.76L67.8846 40.6609Z" fill="#7D7D7D"/>
<path d="M220.769 45.4131L220.192 92.3302C219.44 109.26 218.952 119.293 217.264 134.754L246.923 128.879C248.378 128.568 249.429 128.415 250.577 128.384C251.247 128.365 251.951 128.389 252.788 128.447C253.662 126.884 254.083 125.961 254.327 123.954C254.84 121.131 255.769 115.619 255.769 116.034C255.769 116.552 255.865 112.289 256.346 110.907C256.827 109.524 257.34 107.246 258.077 106.587C259.108 105.663 260.551 105.697 261.635 106.2C261.301 103.235 261.044 101.593 259.519 98.9833H260.962C262.705 99.1201 263.6 98.828 265 97.428L264.904 91.207C265 90.0837 263.846 88.1828 263.462 88.01C262.773 87.5264 261.877 87.3918 259.793 87.404C259.129 87.3525 258.981 87.5445 258.846 88.01V89.4789H257.596V89.9973H257.308L257.019 89.1782L247.692 62.6938C246.283 58.3351 245.437 55.915 242.019 52.4118L220.769 45.4131Z" fill="#FFA500"/>
<path d="M105.577 62.1754C105.549 64.3687 105.554 65.5983 105.577 67.7916H107.788L108.558 66.4092C109.261 58.0707 110.213 53.4541 113.75 45.4131L115.865 40.4017L180.288 37.6368C181.187 41.0022 181.551 43.0859 182.019 47.0548L183.942 34.7855C158.203 32.7939 139.505 31.4449 111.731 36.5135C106.494 45.9472 108.42 52.1173 105.577 62.1754Z" fill="#FFA500"/>
<path d="M103.173 119.547C102.842 124.714 102.368 127.237 101.25 131.385C101.112 132.735 101.386 133.469 102.212 134.754L105 135.359L108.942 136.223C113.395 136.487 118.723 136.8 124.423 137.133C130.701 137.499 137.431 137.889 143.942 138.263C161.906 139.292 178.204 140.193 178.75 140.111C186.486 140.05 190.727 139.297 197.115 138.028C197.824 137.887 198.558 137.74 199.327 137.587L176.731 136.223L177.115 134.409L108.365 130.693L108.173 119.893C106.859 119.96 106.314 119.48 105 119.547H104.808H103.173Z" fill="#FFA500"/>
<path d="M105 115.573L108.365 115.746L107.788 72.2846L105.577 72.0254V84.4675L103.942 109.006L103.76 115.573L103.75 115.918H105V115.573Z" fill="#FFA500"/>
<path d="M124.423 137.133C124.774 142.425 124.339 145.771 128.654 148.003C132.58 148.895 136.853 148.544 140.673 148.003C142.077 147.354 143.173 144.374 143.173 143.251L143.942 138.263C137.431 137.889 130.701 137.499 124.423 137.133Z" fill="black"/>
<path fill-rule="evenodd" clip-rule="evenodd" d="M262.404 123.954V120.239C262.005 115.906 261.604 113.867 259.038 114.277C258.016 115.366 257.577 116.241 257.115 118.424L255.865 127.324C254.924 128.237 254.089 128.189 252.788 128.447C251.951 128.389 251.247 128.365 250.577 128.384V131.989C250.718 134.835 251.504 135.706 254.423 135.705H257.788C260.111 135.466 260.905 134.542 261.538 132.335C261.727 132.285 262.443 126.744 262.404 123.954ZM257.788 122.744C257.536 121.232 258.711 118.534 259.423 118.597C260.802 119.151 261.117 119.846 261.25 121.448V127.151C260.944 129.227 260.609 130.232 259.615 131.644C258.598 131.78 258.102 131.634 257.788 129.657V122.744Z" fill="black"/>
<path d="M254.327 123.954C254.083 125.961 253.662 126.884 252.788 128.447C254.089 128.189 254.924 128.237 255.865 127.324L257.115 118.424C257.577 116.241 258.016 115.366 259.038 114.277C261.604 113.867 262.005 115.906 262.404 120.239V123.954C262.877 122.974 263.359 122.303 263.654 121.016L264.231 113.845C264.156 111.419 263.931 110.057 263.077 107.624C262.882 107.041 262.333 106.523 261.635 106.2C260.551 105.697 259.108 105.663 258.077 106.587C257.34 107.246 256.827 109.524 256.346 110.907C255.865 112.289 255.769 116.552 255.769 116.034C255.769 115.619 254.84 121.131 254.327 123.954Z" fill="#7D7D7D"/>
<path fill-rule="evenodd" clip-rule="evenodd" d="M197.115 145.728V138.902V138.028C197.824 137.887 198.558 137.74 199.327 137.587L207.404 138.074L207.692 143.913C208.779 146.926 209.443 147.394 210.673 147.196C212.45 147.328 214.71 141.693 214.423 138.497L216.058 138.596C216.058 140.975 215.326 150.037 213.75 150.682C213.659 152.245 205.697 153.486 203.173 152.813C198.923 151.708 197.579 150.168 197.115 145.728Z" fill="black"/>
<path d="M103.173 119.547H104.808H105C106.314 119.48 106.859 119.96 108.173 119.893L108.365 130.693L177.115 134.409L177.981 119.893L179.423 97.5144C180.575 87.0009 181.121 81.1388 181.154 70.9885V54.7447C181.297 51.092 181.489 49.4206 182.019 47.0548C181.551 43.0859 181.187 41.0022 180.288 37.6368L115.865 40.4017L113.75 45.4131C110.213 53.4541 109.261 58.0707 108.558 66.4092L107.788 67.7916H105.577V72.0254L107.788 72.2846L108.365 115.746L105 115.573V115.918H103.75L103.76 115.573L103.173 119.547Z" fill="black"/>
<path d="M65.0962 128.649C65.1548 128.733 65.2135 128.758 65.2726 128.726M65 128.706L65.2726 128.726M101.25 131.385C102.368 127.237 102.842 124.714 103.173 119.547M101.25 131.385C101.112 132.735 101.386 133.469 102.212 134.754L105 135.359L108.942 136.223C113.395 136.487 118.723 136.8 124.423 137.133M101.25 131.385L65.2726 128.726M103.173 119.547H104.808H105C106.314 119.48 106.859 119.96 108.173 119.893L108.365 130.693L177.115 134.409M103.173 119.547L103.76 115.573M105.577 62.1754C105.158 52.7081 103.725 47.8009 100.481 39.2785C87.7453 39.3044 80.6019 39.0995 67.8846 40.4017H67.76L67.8846 40.6609C68.9543 45.6613 69.217 48.8729 69.4231 54.9175C70.0737 66.2518 69.91 72.4173 69.4231 83.3442C67.5366 108.117 66.3633 128.138 65.2726 128.726M105.577 62.1754C105.549 64.3687 105.554 65.5983 105.577 67.7916M105.577 62.1754C108.42 52.1173 106.494 45.9472 111.731 36.5135C139.505 31.4449 158.203 32.7939 183.942 34.7855M105.577 67.7916H107.788L108.558 66.4092C109.261 58.0707 110.213 53.4541 113.75 45.4131L115.865 40.4017L180.288 37.6368C181.187 41.0022 181.551 43.0859 182.019 47.0548M105.577 67.7916V72.0254M105.577 72.0254V84.4675L103.942 109.006L103.76 115.573M105.577 72.0254C106.441 72.1266 106.925 72.1834 107.788 72.2846M105.577 72.0254L107.788 72.2846M107.788 72.2846L108.365 115.746L105 115.573V115.918H103.75L103.76 115.573M182.019 47.0548C181.489 49.4206 181.297 51.092 181.154 54.7447V70.9885C181.121 81.1388 180.575 87.0009 179.423 97.5144L177.981 119.893L177.115 134.409M182.019 47.0548L183.942 34.7855M177.115 134.409L176.731 136.223L199.327 137.587M183.942 34.7855L220.096 33.2302C220.658 37.8871 220.774 40.5652 220.769 45.4131M220.769 45.4131L220.192 92.3302C219.44 109.26 218.952 119.293 217.264 134.754M220.769 45.4131L242.019 52.4118C245.437 55.915 246.283 58.3351 247.692 62.6938L257.019 89.1782M199.327 137.587C198.558 137.74 197.824 137.887 197.115 138.028M199.327 137.587L207.404 138.074M259.808 87.4052C259.803 87.4048 259.798 87.4044 259.793 87.404M259.793 87.404C259.129 87.3525 258.981 87.5445 258.846 88.01V89.4789H257.596V89.9973H257.308L257.019 89.1782M259.793 87.404C261.877 87.3918 262.773 87.5264 263.462 88.01C263.846 88.1828 265 90.0837 264.904 91.207L265 97.428C263.6 98.828 262.705 99.1201 260.962 98.9833M260.962 98.9833C260.885 98.9833 259.968 98.9833 259.519 98.9833M260.962 98.9833H259.519M259.519 98.9833C259.015 98.8229 258.874 98.6329 258.75 98.2056M259.519 98.9833C261.044 101.593 261.301 103.235 261.635 106.2M258.558 98.2056H257.019V97.9464V89.1782M217.264 134.754C217.126 136.012 216.981 137.306 216.827 138.642L216.058 138.596M217.264 134.754L246.923 128.879C248.378 128.568 249.429 128.415 250.577 128.384M252.788 128.447C253.662 126.884 254.083 125.961 254.327 123.954C254.84 121.131 255.769 115.619 255.769 116.034C255.769 116.552 255.865 112.289 256.346 110.907C256.827 109.524 257.34 107.246 258.077 106.587C259.108 105.663 260.551 105.697 261.635 106.2M252.788 128.447C254.089 128.189 254.924 128.237 255.865 127.324L257.115 118.424C257.577 116.241 258.016 115.366 259.038 114.277C261.604 113.867 262.005 115.906 262.404 120.239M252.788 128.447C251.951 128.389 251.247 128.365 250.577 128.384M262.404 123.954C262.877 122.974 263.359 122.303 263.654 121.016L264.231 113.845C264.156 111.419 263.931 110.057 263.077 107.624C262.882 107.041 262.333 106.523 261.635 106.2M262.404 123.954C262.404 123.816 262.404 121.419 262.404 120.239M262.404 123.954C262.443 126.744 261.727 132.285 261.538 132.335C260.905 134.542 260.111 135.466 257.788 135.705M262.404 123.954V120.239M250.577 128.384V131.989C250.718 134.835 251.504 135.706 254.423 135.705M254.423 135.705C254.5 135.705 256.699 135.705 257.788 135.705M254.423 135.705H257.788M216.058 138.596C216.058 140.975 215.326 150.037 213.75 150.682C213.659 152.245 205.697 153.486 203.173 152.813C198.923 151.708 197.579 150.168 197.115 145.728V138.902V138.028M216.058 138.596L207.404 138.074M216.058 138.596L214.423 138.497M197.115 138.028C190.727 139.297 186.486 140.05 178.75 140.111C178.204 140.193 161.906 139.292 143.942 138.263M261.25 127.151C260.944 129.227 260.609 130.232 259.615 131.644C258.598 131.78 258.102 131.634 257.788 129.657V122.744C257.536 121.232 258.711 118.534 259.423 118.597C260.802 119.151 261.117 119.846 261.25 121.448M261.25 127.151C261.25 126.943 261.25 123.263 261.25 121.448M261.25 127.151V121.448M207.404 138.074L207.692 143.913C208.779 146.926 209.443 147.394 210.673 147.196C212.45 147.328 214.71 141.693 214.423 138.497M207.404 138.074L214.423 138.497M124.423 137.133C124.774 142.425 124.339 145.771 128.654 148.003C132.58 148.895 136.853 148.544 140.673 148.003C142.077 147.354 143.173 144.374 143.173 143.251M124.423 137.133C130.701 137.499 137.431 137.889 143.942 138.263M143.173 143.251C143.173 142.974 143.942 139.052 143.942 138.263M143.173 143.251L143.942 138.263" stroke="black" stroke-width="5"/>
<path d="M108.455 337.75L102.835 332.125V349L116.719 339L117.05 332.026L108.455 337.75Z" fill="#FFA500"/>
<path d="M108.455 337.75L102.835 332.125V349L116.719 339L117.05 332.026L108.455 337.75Z" fill="#FFA500"/>
<path d="M102.835 332.125L96.5537 337.75L88.6838 332.125L88.9504 339L102.835 349V332.125Z" fill="#FFA500"/>
<path d="M102.835 313.375L88.2893 322.75L102.835 332.125L117.711 322.75L102.835 313.375Z" fill="#7D7D7D"/>
<path d="M88.2893 322.75L83 328.062L88.6838 332.125L96.5537 337.75L102.835 332.125L88.2893 322.75Z" fill="#FFA500"/>
<path d="M102.835 332.125L108.455 337.75L117.05 332.026L123 328.062L117.711 322.75L102.835 332.125Z" fill="#FFA500"/>
<path d="M117.711 322.75L122.339 318.062L107.793 309L102.835 313.375L117.711 322.75Z" fill="#FFA500"/>
<path d="M98.2066 309L83.6612 318.062L88.2893 322.75L102.835 313.375L98.2066 309Z" fill="#FFA500"/>
<path d="M88.2893 322.75L83.6612 318.062L98.2066 309L102.835 313.375M88.2893 322.75L83 328.062L88.6838 332.125M88.2893 322.75L102.835 313.375M88.2893 322.75L102.835 332.125M102.835 332.125L96.5537 337.75L88.6838 332.125M102.835 332.125L108.455 337.75L117.05 332.026M102.835 332.125V349M102.835 332.125L117.711 322.75M117.711 322.75L123 328.062L117.05 332.026M117.711 322.75L122.339 318.062L107.793 309L102.835 313.375M117.711 322.75L102.835 313.375M88.6838 332.125L88.9504 339L102.835 349M102.835 349L116.719 339L117.05 332.026" stroke="black" stroke-width="0.5"/>
<defs>
<linearGradient id="paint0_linear_66_86" x1="219.745" y1="66.2323" x2="184.196" y2="555.124" gradientUnits="userSpaceOnUse">
<stop stop-color="#2E2E2E"/>
<stop offset="1" stop-color="#838383" stop-opacity="0.23"/>
</linearGradient>
</defs>
</svg>
