<svg width="300" height="300" viewBox="0 0 300 300" fill="none" xmlns="http://www.w3.org/2000/svg">
<g clip-path="url(#clip0_94_181)">
<path d="M240 144.12V276.12H222V219.87H186.78V162.87H114.78V219.87H78V276.12H60V144.12H240Z" fill="#FDDB9D"/>
<path d="M199.5 222.57V252.57L186 240.06L172.5 252.57V222.57H199.5Z" fill="#FFA500"/>
<path d="M164.28 165.57V195.57L150.78 183.06L137.28 195.57V165.57H164.28Z" fill="#FFA500"/>
<path d="M127.5 222.57V252.57L114 240.06L100.5 252.57V222.57H127.5Z" fill="#FFA500"/>
<path d="M240 141.12H60V147.12H240V141.12Z" fill="#495771"/>
<path d="M273 279H237V105H63V279H27V105H15V76.11L16.86 75.36L150 21L151.14 21.45L285 76.11V105H273V279ZM243 273H267V99H279V80.13L150 27.36L21 80.13V99H33V273H57V99H243V273Z" fill="#495771"/>
<path d="M240 120.12H60V126.12H240V120.12Z" fill="#495771"/>
<path d="M222 279H78C77.2044 279 76.4413 278.684 75.8787 278.121C75.3161 277.559 75 276.796 75 276V219.87C75 219.074 75.3161 218.311 75.8787 217.749C76.4413 217.186 77.2044 216.87 78 216.87H222C222.796 216.87 223.559 217.186 224.121 217.749C224.684 218.311 225 219.074 225 219.87V276C225 276.796 224.684 277.559 224.121 278.121C223.559 278.684 222.796 279 222 279ZM81 273H219V222.87H81V273Z" fill="#495771"/>
<path d="M153 219.87H147V278.37H153V219.87Z" fill="#495771"/>
<path d="M189.78 221.37H183.78V165.87H117.78V221.37H111.78V162.87C111.78 162.074 112.096 161.311 112.659 160.749C113.221 160.186 113.984 159.87 114.78 159.87H186.78C187.576 159.87 188.339 160.186 188.901 160.749C189.464 161.311 189.78 162.074 189.78 162.87V221.37Z" fill="#495771"/>
</g>
<defs>
<clipPath id="clip0_94_181">
<rect width="300" height="300" fill="white"/>
</clipPath>
</defs>
</svg>
